<svg version="1.1" xmlns="http://www.w3.org/2000/svg" xmlns:xlink="http://www.w3.org/1999/xlink" width="433.33333" height="325.5" viewBox="0,0,433.33333,325.5"><g transform="translate(-23.33333,-17.25)"><g data-paper-data="{&quot;isPaintingLayer&quot;:true}" fill-rule="nonzero" stroke-linecap="butt" stroke-linejoin="miter" stroke-miterlimit="10" stroke-dasharray="" stroke-dashoffset="0" style="mix-blend-mode: normal"><path d="M24.33333,341.75v-323.5h431.33333v323.5z" fill-opacity="0.43529" fill="#000000" stroke="#000000" stroke-width="2"/><text transform="translate(205.08001,52.76875) scale(0.5,0.5)" font-size="40" xml:space="preserve" fill="#ffffff" fill-rule="nonzero" stroke="none" stroke-width="1" stroke-linecap="butt" stroke-linejoin="miter" stroke-miterlimit="10" stroke-dasharray="" stroke-dashoffset="0" font-family="Sans Serif" font-weight="normal" text-anchor="start" style="mix-blend-mode: normal"><tspan x="0" dy="0">Paused</tspan></text><text transform="translate(27,327.16666) scale(0.5,0.5)" font-size="40" xml:space="preserve" fill="#ffffff" fill-rule="nonzero" stroke="none" stroke-width="1" stroke-linecap="butt" stroke-linejoin="miter" stroke-miterlimit="10" stroke-dasharray="" stroke-dashoffset="0" font-family="Sans Serif" font-weight="normal" text-anchor="start" style="mix-blend-mode: normal"><tspan x="0" dy="0">Click the green flag       to apply any changes</tspan></text><path d="M241.2,310.51031v13.89955c0,0.27578 -0.11031,0.55157 -0.33094,0.66188c-1.76502,1.54439 -3.9713,2.31659 -6.23274,2.31659c-2.26143,0 -4.46771,-0.82735 -6.23274,-2.31659c-1.43408,-1.21345 -3.1991,-1.93049 -5.07444,-1.93049c-1.70987,0 -3.36457,0.55157 -4.7435,1.65471v9.21121c0,0.55157 -0.44126,0.99283 -0.99283,0.99283c-0.55157,0 -0.99283,-0.44126 -0.99283,-0.99283v-23.49686c0,-0.44126 0.27578,-0.71704 0.55157,-0.88251c1.76502,-1.43408 3.86099,-2.20628 6.06726,-2.20628c2.26143,0 4.52287,0.82735 6.28789,2.31659c1.43408,1.21345 3.1991,1.87534 5.07444,1.87534c1.87534,0 3.64036,-0.66188 5.07444,-1.87534c0.33094,-0.22063 0.71704,-0.27578 1.04798,-0.11031c0.33094,0.16547 0.49641,0.49641 0.49641,0.88251z" fill="#549a10" stroke="none" stroke-width="1"/></g></g></svg>